<svg width="37" height="37" viewBox="0 0 37 37" fill="none" xmlns="http://www.w3.org/2000/svg">
<g clip-path="url(#clip0_1_82)">
<path d="M31.2543 6.91021C28.9007 5.84876 26.3778 5.06421 23.7396 4.61809C23.7161 4.61358 23.6917 4.61649 23.67 4.62641C23.6482 4.63633 23.6301 4.65278 23.618 4.67347C23.295 5.24112 22.935 5.98106 22.6827 6.56562C19.8846 6.14833 17.04 6.14833 14.2419 6.56562C13.962 5.91727 13.6451 5.28551 13.2927 4.67347C13.2804 4.65296 13.2623 4.6365 13.2407 4.62612C13.2191 4.61573 13.195 4.61187 13.1712 4.61502C10.5345 5.06113 8.01165 5.84568 5.65646 6.90867C5.6373 6.91889 5.62053 6.93304 5.60723 6.95021C0.819939 13.9881 -0.49226 20.8521 0.152302 27.63C0.154096 27.6466 0.159248 27.6627 0.167447 27.6772C0.175645 27.6918 0.186718 27.7045 0.19999 27.7146C2.99375 29.7497 6.11046 31.2995 9.41922 32.2989C9.44231 32.3055 9.46686 32.3053 9.48982 32.2982C9.51278 32.2911 9.53316 32.2774 9.54844 32.2589C10.2594 31.3061 10.8902 30.296 11.4344 29.2391C11.442 29.2247 11.4463 29.2087 11.4472 29.1925C11.448 29.1762 11.4454 29.1599 11.4394 29.1447C11.4334 29.1296 11.4243 29.1159 11.4125 29.1045C11.4008 29.0932 11.3867 29.0846 11.3714 29.0791C10.3771 28.7061 9.41414 28.2544 8.49161 27.7285C8.47502 27.719 8.46104 27.7056 8.45093 27.6894C8.44081 27.6732 8.43488 27.6547 8.43366 27.6356C8.43244 27.6166 8.43597 27.5975 8.44394 27.5802C8.45191 27.5628 8.46406 27.5477 8.4793 27.5362C8.67416 27.3926 8.86491 27.2454 9.05156 27.0947C9.06854 27.082 9.08851 27.0739 9.10953 27.0712C9.13056 27.0685 9.15192 27.0713 9.17155 27.0793C15.2126 29.7929 21.7551 29.7929 27.7254 27.0793C27.7451 27.0708 27.7667 27.0676 27.788 27.0701C27.8093 27.0725 27.8296 27.0804 27.8469 27.0931C28.0315 27.2449 28.2223 27.3926 28.4192 27.5362C28.4346 27.5474 28.4469 27.5624 28.4551 27.5796C28.4634 27.5968 28.4672 27.6158 28.4663 27.6348C28.4654 27.6539 28.4597 27.6724 28.4499 27.6887C28.4401 27.7051 28.4263 27.7187 28.4099 27.7285C27.4921 28.2566 26.5316 28.7063 25.5286 29.0776C25.5132 29.0832 25.4992 29.092 25.4874 29.1035C25.4757 29.1149 25.4665 29.1288 25.4605 29.1441C25.4546 29.1594 25.4519 29.1757 25.4528 29.1921C25.4537 29.2085 25.458 29.2245 25.4656 29.2391C26.0194 30.2959 26.6532 31.302 27.35 32.2573C27.3649 32.2764 27.3852 32.2907 27.4081 32.2984C27.4311 32.306 27.4559 32.3067 27.4793 32.3004C30.793 31.302 33.9145 29.7516 36.7123 27.7146C36.7257 27.7048 36.737 27.6924 36.7454 27.6781C36.7539 27.6638 36.7594 27.648 36.7616 27.6316C37.5307 19.7953 35.4724 12.9866 31.302 6.95328C31.2918 6.93368 31.2749 6.91839 31.2543 6.91021ZM12.3374 23.5027C10.5191 23.5027 9.01925 21.8582 9.01925 19.8414C9.01925 17.8231 10.4899 16.1802 12.3374 16.1802C14.1988 16.1802 15.6849 17.837 15.6556 19.8414C15.6556 21.8597 14.185 23.5027 12.3374 23.5027ZM24.6056 23.5027C22.7858 23.5027 21.2875 21.8582 21.2875 19.8414C21.2875 17.8231 22.7566 16.1802 24.6056 16.1802C26.467 16.1802 27.9531 17.837 27.9238 19.8414C27.9238 21.8597 26.4686 23.5027 24.6056 23.5027Z" fill="white"/>
</g>
<defs>
<clipPath id="clip0_1_82">
<rect width="36.92" height="36.92" fill="white"/>
</clipPath>
</defs>
</svg>
